<svg width="20" height="20" viewBox="0 0 20 20" fill="none" xmlns="http://www.w3.org/2000/svg">
<path d="M12.8287 5.75781C13.2192 5.36729 13.8522 5.36729 14.2427 5.75781C14.6329 6.14836 14.6331 6.78147 14.2427 7.17188L11.4136 10L14.2427 12.8281C14.6331 13.2185 14.6329 13.8516 14.2427 14.2422C13.8522 14.6327 13.2192 14.6327 12.8287 14.2422L9.99957 11.4131L7.17145 14.2422C6.78092 14.6327 6.14791 14.6327 5.75739 14.2422C5.367 13.8517 5.36691 13.2186 5.75739 12.8281L8.58551 10L5.75739 7.17188C5.3669 6.78139 5.36697 6.14835 5.75739 5.75781C6.14791 5.36729 6.78092 5.36729 7.17145 5.75781L9.99957 8.58594L12.8287 5.75781Z" fill="white"/>
</svg>
