<svg width="20" height="20" viewBox="0 0 20 20" fill="none" xmlns="http://www.w3.org/2000/svg">
<path fill-rule="evenodd" clip-rule="evenodd" d="M4.85347 4.85347C7.19445 2.51249 10.9899 2.51249 13.3309 4.85347C15.4312 6.95372 15.6466 10.2243 13.9783 12.5654L17.8051 16.3922C18.1953 16.7824 18.1953 17.4149 17.8051 17.8051C17.4149 18.1953 16.7824 18.1953 16.3922 17.8051L12.5654 13.9783C10.2243 15.6466 6.95372 15.4312 4.85347 13.3309C2.51249 10.9899 2.51249 7.19445 4.85347 4.85347ZM6.26637 6.26637C4.70572 7.82703 4.70572 10.3573 6.26637 11.918C7.82703 13.4787 10.3573 13.4787 11.918 11.918C13.4787 10.3573 13.4787 7.82703 11.918 6.26637C10.3573 4.70572 7.82703 4.70572 6.26637 6.26637Z" fill="white"/>
</svg>
