<svg width="20" height="20" viewBox="0 0 20 20" fill="none" xmlns="http://www.w3.org/2000/svg">
<g clip-path="url(#clip0_120_42)">
<path d="M1.68076 0.00205764C2.64951 -0.0444422 3.47272 0.70282 3.51944 1.67151C3.60962 3.54878 4.2694 4.57615 5.1866 5.32829C6.04388 6.03123 7.17208 6.53324 8.5964 7.08464C8.05694 6.40127 7.73429 5.53925 7.73423 4.60105C7.73423 2.38443 9.53115 0.587508 11.7478 0.587508C13.9641 0.587812 15.7613 2.38462 15.7613 4.60105C15.7612 6.61013 14.2842 8.27382 12.3572 8.5677C15.3509 9.90523 18.468 12.0093 19.9098 16.6028C20.2001 17.5282 19.6849 18.5146 18.7595 18.8051C17.8342 19.0951 16.8488 18.5799 16.5583 17.6548C15.915 15.6052 14.8501 14.2535 13.5087 13.2479C12.7764 15.3202 12.4178 17.6752 12.4178 20H3.63607C3.6361 17.5373 4.31531 12.7376 6.14711 9.88497C5.02577 9.40171 3.90888 8.82276 2.95915 8.044C1.25416 6.64575 0.147957 4.68389 0.0113108 1.84074C-0.0351812 0.87215 0.71231 0.0490345 1.68076 0.00205764Z" fill="white"/>
</g>
<defs>
<clipPath id="clip0_120_42">
<rect width="20" height="20" fill="white"/>
</clipPath>
</defs>
</svg>
