<svg width="96" height="96" viewBox="0 0 96 96" fill="none" xmlns="http://www.w3.org/2000/svg">
<rect width="96" height="96" fill="black"/>
<path d="M71.5168 37.1363C75.4363 23.2795 77.2149 11.426 73.9596 9.3796C71.2341 7.66397 61.7675 11.9477 50.8875 18.5198C54.7603 19.1894 59.4235 22.5696 60.8069 28.9992C60.9249 29.5477 61.0182 30.1151 61.0869 30.704C61.3009 32.5756 61.1033 34.8587 60.6175 37.3326C58.5096 48.0943 50.9506 62.4863 48 62.4863C45.0494 62.4863 37.4904 48.0943 35.3825 37.3326C34.8967 34.8587 34.6991 32.5756 34.9131 30.704C34.9818 30.1151 35.0751 29.5477 35.1931 29.0018C36.5764 22.5696 41.2397 19.1894 45.1125 18.5198C34.2325 11.9477 24.7659 7.66397 22.0404 9.3796C18.7851 11.426 20.5637 23.2795 24.4832 37.1363C13.3094 46.1071 5.02033 54.5239 6.09352 57.7455C6.94439 60.3055 15.6452 62.1314 27.1099 63.1424C24.3624 60.7761 22.7375 58.1703 22.7375 55.8739C22.7375 52.0688 24.3652 48.3498 26.8821 45.0503C33.4612 65.4739 43.2928 87 48 87C52.7072 87 62.5388 65.4739 69.1179 45.0503C71.6348 48.3498 73.2625 52.0688 73.2625 55.8739C73.2625 58.1703 71.6376 60.7761 68.8901 63.1424C80.3548 62.1314 89.0556 60.3055 89.9065 57.7455C90.9797 54.5239 82.6906 46.1071 71.5168 37.1363Z" fill="white"/>
</svg>
