<svg width="20" height="20" viewBox="0 0 20 20" fill="none" xmlns="http://www.w3.org/2000/svg">
<path d="M3.52734 7.91594C4.01442 7.91594 4.40918 8.3107 4.40918 8.79778V10.5614H6.17383C6.66073 10.5617 7.05566 10.9563 7.05566 11.4433C7.05566 11.9302 6.66072 12.3249 6.17383 12.3251H4.40918V14.0888C4.40918 14.5759 4.01442 14.9706 3.52734 14.9706C3.04043 14.9704 2.64551 14.5757 2.64551 14.0888V12.3251H0.881836C0.394808 12.3251 7.84369e-06 11.9303 0 11.4433C2.12893e-08 10.9562 0.394803 10.5615 0.881836 10.5614H2.64551V8.79778C2.64551 8.31082 3.04043 7.91612 3.52734 7.91594Z" fill="black"/>
<path d="M6.20893 2.46957C6.9386 2.43454 7.55863 2.99738 7.59383 3.72699C7.66175 5.14096 8.15869 5.91477 8.84953 6.48128C9.49523 7.01074 10.345 7.38885 11.4178 7.80416C11.0115 7.28945 10.7684 6.64017 10.7684 5.93352C10.7684 4.26397 12.1218 2.91053 13.7914 2.91053C15.4608 2.91076 16.8144 4.26411 16.8144 5.93352C16.8143 7.44676 15.7018 8.69985 14.2504 8.9212C16.5053 9.92863 18.8531 11.5134 19.939 14.9732C20.1577 15.6703 19.7696 16.4132 19.0726 16.632C18.3757 16.8504 17.6335 16.4624 17.4147 15.7656C16.9302 14.2218 16.1281 13.2038 15.1177 12.4463C14.5661 14.0072 14.2961 15.781 14.2961 17.532H7.68168C7.6817 15.6771 8.19327 12.0619 9.57298 9.91337C8.7284 9.54938 7.88715 9.11331 7.17181 8.52675C5.88762 7.47359 5.05443 5.99592 4.95151 3.85446C4.91649 3.12492 5.4795 2.50495 6.20893 2.46957Z" fill="black"/>
</svg>
