<svg width="20" height="20" viewBox="0 0 20 20" fill="none" xmlns="http://www.w3.org/2000/svg">
<g clip-path="url(#clip0_169_13)">
<path fill-rule="evenodd" clip-rule="evenodd" d="M18.8925 18.6629C18.8925 19.2599 18.4085 19.7439 17.8115 19.7439H3.21685C2.61979 19.7439 2.13577 19.2599 2.13577 18.6629V8.93314H18.8925V18.6629ZM3.21685 10.0142V12.7169L4.67642 10.0142H3.21685ZM6.13282 10.0142L4.67378 12.7169H6.13282L7.59237 10.0142H6.13282ZM9.05405 10.0142L7.59448 12.7169H9.05405L10.5131 10.0142H9.05405ZM11.9737 10.0142L10.5147 12.7169H11.9737L13.4333 10.0142H11.9737ZM14.8918 10.0142L13.4322 12.7169H14.8918L16.3508 10.0142H14.8918ZM16.3519 12.7169H17.8115V10.0142L16.3519 12.7169Z" fill="white"/>
<path fill-rule="evenodd" clip-rule="evenodd" d="M15.9316 0.0398742C16.5067 -0.120214 17.1029 0.216114 17.2631 0.791195L18.2775 4.43648L2.13578 8.93313L1.12095 5.28786C0.960881 4.71275 1.2972 4.11652 1.87227 3.95632L15.9316 0.0398742ZM2.88664 7.60162L4.29266 7.20995L2.16137 4.99804L2.88664 7.60162ZM3.56485 4.60707L5.69564 6.81914L7.10168 6.42746L4.97038 4.21554L3.56485 4.60707ZM6.37844 3.8233L8.50973 6.03519L9.91579 5.64351L7.78449 3.43163L6.37844 3.8233ZM9.19152 3.03967L11.3223 5.25171L12.7283 4.86004L10.597 2.64814L9.19152 3.03967ZM12.0021 2.25675L14.1334 4.46865L15.5389 4.07711L13.4081 1.86508L12.0021 2.25675ZM14.8146 1.47326L16.9459 3.68516L16.2207 1.08158L14.8146 1.47326Z" fill="white"/>
</g>
<defs>
<clipPath id="clip0_169_13">
<rect width="17.8378" height="20" fill="white" transform="translate(1.08109)"/>
</clipPath>
</defs>
</svg>
