<svg width="20" height="20" viewBox="0 0 20 20" fill="none" xmlns="http://www.w3.org/2000/svg">
<path fill-rule="evenodd" clip-rule="evenodd" d="M2.34098 2.34098C5.46229 -0.780327 10.5229 -0.780327 13.6442 2.34098C16.4446 5.14132 16.7318 9.50212 14.5074 12.6235L19.6098 17.726C20.1301 18.2462 20.1301 19.0896 19.6098 19.6098C19.0896 20.1301 18.2462 20.1301 17.726 19.6098L12.6235 14.5074C9.50212 16.7318 5.14132 16.4446 2.34098 13.6442C-0.780327 10.5229 -0.780327 5.46229 2.34098 2.34098ZM4.22486 4.22486C2.14398 6.30573 2.14398 9.67948 4.22486 11.7604C6.30573 13.8412 9.67948 13.8412 11.7604 11.7604C13.8412 9.67948 13.8412 6.30573 11.7604 4.22486C9.67948 2.14398 6.30573 2.14398 4.22486 4.22486Z" fill="black"/>
</svg>
