<svg width="20" height="20" viewBox="0 0 20 20" fill="none" xmlns="http://www.w3.org/2000/svg">
<g clip-path="url(#clip0_169_17)">
<path d="M17.1425 13.1428H6.71429C5.21523 13.1428 4 14.3581 4 15.8571C4 17.3562 5.21523 18.5714 6.71429 18.5714H17.1425V19.7143H6.85715C4.64801 19.7143 2.85715 17.9234 2.85715 15.7143L2.8586 4C2.8586 1.79086 4.64947 0 6.8586 0H17.144L17.1425 13.1428Z" fill="white"/>
<path d="M5.14285 14.857C5.14285 14.5415 5.34184 14.2856 5.5873 14.2856H17.1425V15.4285H5.5873C5.34184 15.4285 5.14285 15.1726 5.14285 14.857Z" fill="white"/>
<path d="M5.14285 16.857C5.14285 16.5415 5.34184 16.2856 5.5873 16.2856H17.1425V17.4285H5.5873C5.34184 17.4285 5.14285 17.1726 5.14285 16.857Z" fill="white"/>
</g>
<defs>
<clipPath id="clip0_169_17">
<rect width="14.2857" height="20" fill="white" transform="translate(2.85715)"/>
</clipPath>
</defs>
</svg>
