<svg width="24" height="24" viewBox="0 0 24 24" fill="none" xmlns="http://www.w3.org/2000/svg">
<path d="M4.89501 3.82483C5.72237 3.78512 6.42542 4.42331 6.46532 5.25061C6.54234 6.85389 7.10582 7.7313 7.88915 8.37366C8.6213 8.97401 9.58483 9.40274 10.8013 9.87366C10.3405 9.29003 10.065 8.55383 10.0649 7.75257C10.0649 5.85948 11.5996 4.32483 13.4927 4.32483C15.3855 4.32509 16.9204 5.85964 16.9204 7.75257C16.9203 9.46841 15.6589 10.8893 14.0132 11.1403C16.5699 12.2826 19.232 14.0795 20.4634 18.0026C20.7114 18.7929 20.2713 19.6354 19.4809 19.8834C18.6908 20.1311 17.8492 19.6911 17.6011 18.901C17.0517 17.1506 16.1422 15.9962 14.9966 15.1373C14.3711 16.9072 14.0649 18.9185 14.0649 20.9039H6.56493C6.56496 18.8006 7.14503 14.7015 8.70946 12.2653C7.7518 11.8525 6.79792 11.3581 5.98681 10.693C4.53068 9.49883 3.58593 7.82332 3.46923 5.39514C3.42952 4.56793 4.06791 3.86495 4.89501 3.82483Z" fill="white"/>
</svg>
