<svg width="20" height="20" viewBox="0 0 20 20" fill="none" xmlns="http://www.w3.org/2000/svg">
<path d="M15.6523 2.93315C16.0453 2.54016 16.6807 2.53872 17.0712 2.92924C17.4616 3.31977 17.4593 3.95426 17.0663 4.34721L11.414 9.99955L17.0663 15.6519C17.4593 16.0449 17.4616 16.6803 17.0712 17.0708C16.6807 17.4613 16.0453 17.4599 15.6523 17.0669L9.99991 11.4136L4.34757 17.0669C3.95455 17.4597 3.31906 17.4613 2.92862 17.0708C2.53843 16.6803 2.54062 16.0448 2.93351 15.6519L8.58487 9.99955L2.93351 4.34721C2.54086 3.95432 2.53855 3.31972 2.92862 2.92924C3.31907 2.53879 3.95455 2.54038 4.34757 2.93315L9.99991 8.58549L15.6523 2.93315Z" fill="black"/>
</svg>
