<?xml version="1.0" encoding="UTF-8"?>
<svg id="Layer_2" data-name="Layer 2" xmlns="http://www.w3.org/2000/svg" viewBox="0 0 306.04 290.06">
  <defs>
    <style>
      .cls-1 {
        fill: #fff;
      }
    </style>
  </defs>
  <g id="Layer_1-2" data-name="Layer 1">
    <path class="cls-1" d="M238.7,104.63c14.28-51.53,20.76-95.61,8.9-103.22-9.93-6.38-44.42,9.55-84.06,33.99,14.11,2.49,31.1,15.06,36.14,38.97h0c.43,2.04.77,4.15,1.02,6.34.78,6.96.06,15.45-1.71,24.65-7.68,40.02-35.22,93.54-45.97,93.54s-38.29-53.52-45.97-93.54c-1.77-9.2-2.49-17.69-1.71-24.65.25-2.19.59-4.3,1.02-6.33h0c5.04-23.92,22.03-36.49,36.14-38.98C102.86,10.96,68.37-4.97,58.44,1.41c-11.86,7.61-5.38,51.69,8.9,103.22C26.63,137.99-3.57,169.29.34,181.27c3.1,9.52,34.8,16.31,76.57,20.07-10.01-8.8-15.93-18.49-15.93-27.03,0-14.15,5.93-27.98,15.1-40.25,23.97,75.95,59.79,156,76.94,156s52.97-80.05,76.94-156c9.17,12.27,15.1,26.1,15.1,40.25,0,8.54-5.92,18.23-15.93,27.03,41.77-3.76,73.47-10.55,76.57-20.07,3.91-11.98-26.29-43.28-67-76.64Z"/>
  </g>
</svg>